<svg xmlns="http://www.w3.org/2000/svg" version="1.1" xmlns:xlink="http://www.w3.org/1999/xlink" xmlns:svgjs="http://svgjs.dev/svgjs" width="1000" height="1000" viewBox="0 0 1000 1000"><rect width="1000" height="1000" fill="#000000"></rect><g transform="matrix(0.7,0,0,0.7,149.5757903427854,452.2404749165424)"><svg viewBox="0 0 396 54" data-background-color="#89939e" preserveAspectRatio="xMidYMid meet" height="136" width="1000" xmlns="http://www.w3.org/2000/svg" xmlns:xlink="http://www.w3.org/1999/xlink"><g id="tight-bounds" transform="matrix(1,0,0,1,0.23998146322423963,0.09048691708730416)"><svg viewBox="0 0 395.52 53.81902616582541" height="53.81902616582541" width="395.52"><g><svg viewBox="0 0 521.215716594566 70.92263928358209" height="53.81902616582541" width="395.52"><g><rect width="5.8758705978670696" height="70.92263928358209" x="104.43798579285837" y="0" fill="#ffffff" opacity="1" stroke-width="0" stroke="transparent" fill-opacity="1" class="rect-o-0" data-fill-palette-color="primary" rx="1%" id="o-0" data-palette-color="#ffffff"></rect></g><g transform="matrix(1,0,0,1,125.69571659456594,0.1764244758298048)"><svg viewBox="0 0 395.52 70.56979033192248" height="70.56979033192248" width="395.52"><g><svg viewBox="0 0 395.52 70.56979033192248" height="70.56979033192248" width="395.52"><g><svg viewBox="0 0 395.52 70.56979033192248" height="70.56979033192248" width="395.52"><g transform="matrix(1,0,0,1,0,0)"><svg width="395.52" viewBox="2.2000010013580322 -35.45000457763672 219.18997192382812 36.11000061035156" height="70.56979033192248" data-palette-color="#ffffff"><svg></svg><g class="undefined-text-0" data-fill-palette-color="primary" id="text-0"><path xmlns="http://www.w3.org/2000/svg" d="M4.88-0.9l-1.56 0.24c-0.213 0-0.343-0.17-0.39-0.51v0c-0.18-1.533-0.32-2.723-0.42-3.57-0.093-0.847-0.16-1.48-0.2-1.9-0.04-0.427-0.067-0.7-0.08-0.82-0.007-0.12-0.01-0.203-0.01-0.25v0c0-0.18 0.083-0.377 0.25-0.59 0.16-0.213 0.353-0.32 0.58-0.32v0c0.167 0 0.343 0.097 0.53 0.29 0.187 0.2 0.363 0.43 0.53 0.69 0.173 0.26 0.32 0.52 0.44 0.78 0.127 0.26 0.207 0.447 0.24 0.56v0c0.42 0.893 0.877 1.647 1.37 2.26 0.5 0.607 1.067 1.093 1.7 1.46 0.633 0.367 1.35 0.633 2.15 0.8 0.8 0.16 1.71 0.24 2.73 0.24v0c1.747 0 3.103-0.413 4.07-1.24 0.967-0.833 1.45-2.17 1.45-4.01v0c0-1.053-0.23-2.013-0.69-2.88-0.467-0.86-1.073-1.66-1.82-2.4-0.753-0.74-1.61-1.443-2.57-2.11-0.96-0.673-1.943-1.35-2.95-2.03-1.007-0.687-1.99-1.4-2.95-2.14-0.967-0.74-1.823-1.557-2.57-2.45-0.747-0.893-1.353-1.887-1.82-2.98-0.46-1.093-0.69-2.323-0.69-3.69v0c0-0.827 0.15-1.6 0.45-2.32 0.3-0.713 0.703-1.363 1.21-1.95 0.5-0.587 1.09-1.11 1.77-1.57 0.673-0.467 1.393-0.857 2.16-1.17 0.767-0.32 1.543-0.563 2.33-0.73 0.787-0.16 1.557-0.24 2.31-0.24v0c0.6 0 1.207 0.053 1.82 0.16 0.607 0.107 1.207 0.233 1.8 0.38 0.593 0.147 1.193 0.303 1.8 0.47 0.6 0.173 1.193 0.333 1.78 0.48v0l1.61-0.15c0.147 0 0.24 0.063 0.28 0.19 0.04 0.12 0.07 0.23 0.09 0.33v0l0.7 5.73c0 0.087-0.103 0.143-0.31 0.17-0.213 0.033-0.377 0.05-0.49 0.05v0c-0.1 0-0.247-0.01-0.44-0.03-0.193-0.027-0.307-0.057-0.34-0.09v0c-0.053-0.047-0.117-0.147-0.19-0.3-0.073-0.16-0.15-0.333-0.23-0.52-0.08-0.187-0.163-0.377-0.25-0.57-0.093-0.193-0.187-0.363-0.28-0.51v0c-0.787-1.207-1.79-2.107-3.01-2.7-1.22-0.593-2.563-0.89-4.03-0.89v0c-0.633 0-1.227 0.073-1.78 0.22-0.553 0.147-1.033 0.377-1.44 0.69-0.407 0.32-0.727 0.723-0.96 1.21-0.24 0.487-0.36 1.073-0.36 1.76v0c0 0.993 0.233 1.893 0.7 2.7 0.46 0.807 1.07 1.563 1.83 2.27 0.76 0.707 1.623 1.393 2.59 2.06 0.967 0.667 1.95 1.347 2.95 2.04 1 0.693 1.987 1.43 2.96 2.21 0.967 0.78 1.827 1.643 2.58 2.59 0.76 0.94 1.373 1.99 1.84 3.15 0.46 1.153 0.69 2.453 0.69 3.9v0c0 0.96-0.167 1.857-0.5 2.69-0.333 0.827-0.783 1.58-1.35 2.26-0.573 0.673-1.243 1.27-2.01 1.79-0.76 0.52-1.577 0.957-2.45 1.31-0.873 0.347-1.77 0.61-2.69 0.79-0.92 0.18-1.817 0.27-2.69 0.27v0c-1.107 0-2.073-0.08-2.9-0.24-0.82-0.167-1.527-0.35-2.12-0.55-0.593-0.207-1.093-0.39-1.5-0.55-0.407-0.167-0.75-0.25-1.03-0.25v0c-0.093 0-0.167 0.01-0.22 0.03zM41.38-30.69v0c0-0.34-0.07-0.53-0.21-0.57-0.133-0.04-0.3-0.077-0.5-0.11v0h-8.27c-0.607 0.127-1.08 0.367-1.42 0.72-0.34 0.347-0.607 0.757-0.8 1.23-0.2 0.473-0.347 0.983-0.44 1.53-0.1 0.54-0.207 1.063-0.32 1.57v0c-0.033 0.147-0.067 0.323-0.1 0.53-0.033 0.2-0.067 0.317-0.1 0.35v0c-0.033 0.047-0.09 0.07-0.17 0.07v0h-0.8c-0.1 0-0.15-0.03-0.15-0.09v0-0.81l0.9-8.35c0.033-0.18 0.107-0.35 0.22-0.51 0.113-0.167 0.293-0.25 0.54-0.25v0c0.113 0 0.223 0.033 0.33 0.1 0.107 0.067 0.21 0.143 0.31 0.23 0.093 0.093 0.187 0.18 0.28 0.26 0.087 0.08 0.18 0.137 0.28 0.17v0c0.193 0.08 0.377 0.133 0.55 0.16 0.167 0.027 0.357 0.04 0.57 0.04v0h25.59c0.207 0 0.397-0.013 0.57-0.04 0.173-0.027 0.357-0.08 0.55-0.16v0c0.1-0.033 0.193-0.09 0.28-0.17 0.087-0.08 0.18-0.167 0.28-0.26 0.1-0.087 0.203-0.163 0.31-0.23 0.1-0.067 0.21-0.1 0.33-0.1v0c0.24 0 0.417 0.083 0.53 0.25 0.113 0.16 0.187 0.33 0.22 0.51v0l0.91 8.35v0.81c0 0.06-0.05 0.09-0.15 0.09v0h-0.81c-0.08 0-0.137-0.023-0.17-0.07v0c-0.033-0.033-0.067-0.15-0.1-0.35-0.027-0.207-0.057-0.383-0.09-0.53v0c-0.113-0.507-0.22-1.03-0.32-1.57-0.1-0.547-0.247-1.057-0.44-1.53-0.193-0.473-0.463-0.883-0.81-1.23-0.34-0.353-0.81-0.593-1.41-0.72v0h-8.3c-0.2 0.033-0.367 0.07-0.5 0.11-0.14 0.04-0.21 0.23-0.21 0.57v0 25.93c0 0.487 0.123 0.923 0.37 1.31 0.24 0.38 0.567 0.717 0.98 1.01 0.42 0.293 0.91 0.53 1.47 0.71 0.56 0.18 1.157 0.3 1.79 0.36v0c0.18 0.02 0.41 0.03 0.69 0.03 0.273 0 0.51 0 0.71 0v0c0.08 0 0.13 0.023 0.15 0.07 0.027 0.047 0.04 0.087 0.04 0.12v0 0.95c0 0.033-0.013 0.077-0.04 0.13-0.02 0.047-0.07 0.07-0.15 0.07v0h-18.97c-0.087 0-0.14-0.023-0.16-0.07-0.027-0.053-0.04-0.097-0.04-0.13v0-0.95c0-0.033 0.013-0.073 0.04-0.12 0.02-0.047 0.073-0.07 0.16-0.07v0c0.173 0 0.403 0 0.69 0 0.287 0 0.52-0.01 0.7-0.03v0c0.633-0.06 1.23-0.18 1.79-0.36 0.56-0.18 1.05-0.417 1.47-0.71 0.413-0.293 0.743-0.63 0.99-1.01 0.24-0.387 0.36-0.823 0.36-1.31v0zM80.59-4.76v-7.3c0-0.1-0.023-0.18-0.07-0.24v0l-9.99-15.97c-0.273-0.44-0.57-0.883-0.89-1.33-0.313-0.447-0.663-0.87-1.05-1.27-0.38-0.4-0.793-0.75-1.24-1.05-0.453-0.3-0.94-0.517-1.46-0.65v0c-0.08-0.013-0.21-0.04-0.39-0.08-0.18-0.04-0.367-0.077-0.56-0.11-0.193-0.033-0.38-0.067-0.56-0.1-0.18-0.033-0.31-0.057-0.39-0.07v0c-0.16-0.02-0.313-0.123-0.46-0.31-0.147-0.187-0.22-0.353-0.22-0.5v0c0-0.033 0.003-0.09 0.01-0.17 0.007-0.08 0.023-0.157 0.05-0.23 0.02-0.073 0.057-0.14 0.11-0.2 0.047-0.053 0.11-0.08 0.19-0.08v0h16.58c0.18 0 0.293 0.08 0.34 0.24 0.047 0.16 0.07 0.307 0.07 0.44v0c0 0.16-0.01 0.33-0.03 0.51-0.027 0.18-0.12 0.27-0.28 0.27v0c-0.44 0.033-0.857 0.067-1.25 0.1-0.387 0.033-0.72 0.11-1 0.23-0.273 0.12-0.493 0.303-0.66 0.55-0.16 0.247-0.24 0.59-0.24 1.03v0c0 0.387 0.097 0.737 0.29 1.05v0l7.45 11.96c0.18 0.273 0.297 0.443 0.35 0.51 0.06 0.067 0.153 0.1 0.28 0.1v0c0.113 0 0.217-0.067 0.31-0.2 0.087-0.127 0.197-0.297 0.33-0.51v0l5.88-9.99c0.227-0.373 0.46-0.787 0.7-1.24 0.233-0.453 0.35-0.917 0.35-1.39v0c0-0.46-0.06-0.823-0.18-1.09-0.127-0.267-0.31-0.473-0.55-0.62-0.247-0.147-0.543-0.253-0.89-0.32-0.353-0.067-0.757-0.123-1.21-0.17v0c-0.18-0.013-0.287-0.11-0.32-0.29-0.033-0.18-0.05-0.343-0.05-0.49v0c0-0.113 0.02-0.257 0.06-0.43 0.04-0.167 0.16-0.25 0.36-0.25v0h12.28c0.127 0 0.217 0.093 0.27 0.28 0.047 0.187 0.07 0.32 0.07 0.4v0c0 0.16-0.053 0.297-0.16 0.41-0.107 0.12-0.237 0.217-0.39 0.29-0.153 0.073-0.317 0.13-0.49 0.17-0.173 0.04-0.333 0.077-0.48 0.11v0c-0.813 0.173-1.517 0.47-2.11 0.89-0.593 0.413-1.173 0.93-1.74 1.55v0c-0.08 0.08-0.2 0.21-0.36 0.39-0.153 0.18-0.237 0.287-0.25 0.32v0l-9.45 16.23v8.62c0 0.973 0.253 1.73 0.76 2.27 0.5 0.54 1.393 0.873 2.68 1v0c0.18 0.02 0.407 0.03 0.68 0.03 0.28 0 0.517 0 0.71 0v0c0.08 0 0.133 0.023 0.16 0.07 0.027 0.047 0.04 0.087 0.04 0.12v0 1.07c0 0.033-0.013 0.077-0.04 0.13-0.027 0.047-0.08 0.07-0.16 0.07v0h-16.62c-0.087 0-0.14-0.023-0.16-0.07-0.027-0.053-0.04-0.097-0.04-0.13v0-1.07c0-0.033 0.013-0.073 0.04-0.12 0.02-0.047 0.073-0.07 0.16-0.07v0c0.18 0 0.41 0 0.69 0 0.287 0 0.52-0.01 0.7-0.03v0c1.287-0.127 2.18-0.46 2.68-1 0.507-0.54 0.76-1.297 0.76-2.27zM104.27 0v0c-0.08 0-0.133-0.023-0.16-0.07-0.02-0.053-0.03-0.097-0.03-0.13v0-1.31c0-0.033 0.007-0.077 0.02-0.13 0.02-0.047 0.077-0.07 0.17-0.07v0h0.59c0.047 0 0.203-0.013 0.47-0.04 0.273-0.02 0.583-0.06 0.93-0.12 0.353-0.053 0.717-0.13 1.09-0.23 0.373-0.1 0.69-0.223 0.95-0.37v0c0.573-0.32 0.997-0.737 1.27-1.25 0.28-0.513 0.42-1.087 0.42-1.72v0-24.37c0-0.587-0.193-1.067-0.58-1.44-0.38-0.373-0.837-0.67-1.37-0.89-0.527-0.22-1.063-0.37-1.61-0.45-0.54-0.08-0.973-0.12-1.3-0.12v0h-0.54c-0.08 0-0.133-0.03-0.16-0.09-0.027-0.06-0.04-0.097-0.04-0.11v0-1.32c0-0.033 0.013-0.073 0.04-0.12 0.027-0.047 0.08-0.07 0.16-0.07v0h18.73c0.08 0 0.13 0.023 0.15 0.07 0.027 0.047 0.04 0.087 0.04 0.12v0 1.32c0 0.033-0.013 0.073-0.04 0.12-0.02 0.053-0.07 0.08-0.15 0.08v0h-1.05c-0.913 0-1.76 0.07-2.54 0.21-0.787 0.147-1.423 0.31-1.91 0.49v0c-0.373 0.133-0.613 0.35-0.72 0.65-0.107 0.3-0.16 0.817-0.16 1.55v0 25.61c0.033 0.28 0.18 0.54 0.44 0.78 0.26 0.247 0.553 0.37 0.88 0.37v0h8.55c0.567 0 1.107-0.123 1.62-0.37 0.513-0.24 0.99-0.553 1.43-0.94 0.44-0.38 0.847-0.8 1.22-1.26 0.373-0.453 0.713-0.89 1.02-1.31 0.313-0.427 0.59-0.807 0.83-1.14 0.247-0.333 0.46-0.573 0.64-0.72v0c0.08-0.047 0.173-0.097 0.28-0.15 0.107-0.047 0.233-0.07 0.38-0.07v0c0.273 0 0.41 0.107 0.41 0.32v0c0 0.1-0.023 0.197-0.07 0.29v0l-4.05 7.96c-0.067 0.133-0.14 0.24-0.22 0.32-0.08 0.08-0.18 0.12-0.3 0.12v0zM147.92-4.64v0c0 0.553 0.087 1.017 0.26 1.39 0.173 0.373 0.417 0.677 0.73 0.91 0.32 0.227 0.713 0.387 1.18 0.48 0.46 0.1 0.977 0.15 1.55 0.15v0c0.127 0 0.19 0.067 0.19 0.2v0 1.31c0 0.053-0.007 0.1-0.02 0.14-0.02 0.04-0.077 0.06-0.17 0.06v0h-14.43c-0.087 0-0.14-0.023-0.16-0.07-0.027-0.053-0.04-0.097-0.04-0.13v0-1.31c0-0.033 0.013-0.077 0.04-0.13 0.02-0.047 0.073-0.07 0.16-0.07v0c0.567 0 1.083-0.037 1.55-0.11 0.46-0.073 0.853-0.23 1.18-0.47 0.327-0.247 0.58-0.597 0.76-1.05 0.18-0.46 0.27-1.08 0.27-1.86v0-24.59c0-0.553-0.087-1.017-0.26-1.39-0.173-0.373-0.417-0.673-0.73-0.9-0.32-0.227-0.71-0.39-1.17-0.49-0.467-0.093-0.983-0.14-1.55-0.14v0c-0.133 0-0.2-0.067-0.2-0.2v0-1.32c0-0.127 0.067-0.19 0.2-0.19v0h14.42c0.087 0 0.14 0.023 0.16 0.07 0.027 0.047 0.04 0.087 0.04 0.12v0 1.32c0 0.033-0.013 0.073-0.04 0.12-0.02 0.053-0.073 0.08-0.16 0.08v0c-0.567 0-1.083 0.037-1.55 0.11-0.46 0.067-0.853 0.223-1.18 0.47-0.327 0.247-0.58 0.597-0.76 1.05-0.18 0.453-0.27 1.073-0.27 1.86v0zM155.96-1.05v0c0-0.18 0.03-0.363 0.09-0.55 0.067-0.187 0.167-0.353 0.3-0.5v0l22.09-28.59c0.067-0.08 0.1-0.16 0.1-0.24v0c0-0.133-0.057-0.207-0.17-0.22-0.113-0.02-0.22-0.03-0.32-0.03v0h-12.18c-0.373 0-0.767 0.053-1.18 0.16-0.42 0.107-0.813 0.263-1.18 0.47-0.367 0.2-0.697 0.45-0.99 0.75-0.293 0.3-0.497 0.653-0.61 1.06v0c-0.06 0.18-0.143 0.52-0.25 1.02-0.107 0.493-0.257 1.237-0.45 2.23v0c-0.033 0.167-0.163 0.287-0.39 0.36-0.233 0.073-0.487 0.11-0.76 0.11v0c-0.047 0-0.117 0-0.21 0-0.087 0-0.177-0.01-0.27-0.03-0.087-0.013-0.17-0.03-0.25-0.05-0.087-0.013-0.137-0.037-0.15-0.07v0l0.37-8.42c0-0.053 0.007-0.14 0.02-0.26 0.013-0.12 0.037-0.223 0.07-0.31v0c0.053-0.127 0.143-0.207 0.27-0.24v0c0.067-0.013 0.133-0.02 0.2-0.02v0h27.44c0.047 0 0.09 0.04 0.13 0.12 0.04 0.08 0.083 0.173 0.13 0.28 0.04 0.107 0.07 0.22 0.09 0.34 0.027 0.12 0.04 0.223 0.04 0.31v0c0 0.34-0.107 0.663-0.32 0.97v0l-21.24 27.47c-0.047 0.08-0.14 0.217-0.28 0.41-0.14 0.2-0.21 0.363-0.21 0.49v0c0 0.227 0.13 0.393 0.39 0.5 0.26 0.107 0.507 0.16 0.74 0.16v0h15.52c0.913 0 1.67-0.267 2.27-0.8 0.607-0.54 1.093-1.203 1.46-1.99 0.367-0.793 0.63-1.63 0.79-2.51 0.16-0.88 0.257-1.66 0.29-2.34v0c0.02-0.1 0.07-0.173 0.15-0.22 0.08-0.047 0.173-0.083 0.28-0.11 0.107-0.027 0.213-0.04 0.32-0.04 0.107 0 0.2 0 0.28 0v0c0.033 0 0.097 0.01 0.19 0.03 0.1 0.013 0.2 0.033 0.3 0.06 0.093 0.027 0.177 0.06 0.25 0.1 0.073 0.04 0.11 0.077 0.11 0.11v0 1.14l-0.51 8.5c-0.013 0.18-0.02 0.353-0.02 0.52 0 0.173-0.02 0.327-0.06 0.46-0.047 0.127-0.113 0.237-0.2 0.33-0.087 0.087-0.23 0.13-0.43 0.13v0h-31.13c-0.207 0-0.373-0.037-0.5-0.11-0.12-0.073-0.213-0.167-0.28-0.28-0.06-0.113-0.1-0.23-0.12-0.35-0.013-0.127-0.02-0.23-0.02-0.31zM191.75-0.54v-0.71c0-0.013 0.007-0.047 0.02-0.1 0.02-0.06 0.077-0.09 0.17-0.09v0h0.54c0.687-0.047 1.387-0.077 2.1-0.09 0.713-0.007 1.363-0.093 1.95-0.26 0.587-0.173 1.067-0.477 1.44-0.91 0.38-0.427 0.57-1.097 0.57-2.01v0-25c0-0.633-0.133-1.15-0.4-1.55-0.26-0.4-0.6-0.723-1.02-0.97-0.427-0.24-0.907-0.423-1.44-0.55-0.54-0.12-1.087-0.22-1.64-0.3v0h-0.51c-0.08 0-0.133-0.023-0.16-0.07-0.027-0.053-0.04-0.097-0.04-0.13v0-0.95c0-0.033 0.013-0.073 0.04-0.12 0.027-0.047 0.08-0.07 0.16-0.07v0h24.32c0.293 0 0.503 0.05 0.63 0.15 0.133 0.107 0.217 0.34 0.25 0.7v0l0.44 7.81c0 0.087-0.07 0.15-0.21 0.19-0.14 0.04-0.267 0.06-0.38 0.06v0c-0.133 0-0.263-0.017-0.39-0.05-0.133-0.033-0.223-0.083-0.27-0.15v0c-0.113-0.16-0.193-0.4-0.24-0.72-0.053-0.313-0.107-0.667-0.16-1.06-0.06-0.393-0.143-0.8-0.25-1.22-0.107-0.427-0.263-0.817-0.47-1.17-0.213-0.36-0.503-0.673-0.87-0.94-0.367-0.273-0.833-0.457-1.4-0.55v0h-8.72c-0.213 0-0.32 0.107-0.32 0.32v0 11.64c0 0.16 0.083 0.24 0.25 0.24v0h6.98c0.407 0 0.81-0.05 1.21-0.15 0.4-0.107 0.75-0.3 1.05-0.58 0.3-0.273 0.543-0.66 0.73-1.16 0.187-0.493 0.28-1.13 0.28-1.91v0c0-0.133 0.067-0.2 0.2-0.2v0h0.95c0.127 0 0.19 0.067 0.19 0.2v0 11.18c0 0.08-0.023 0.133-0.07 0.16-0.047 0.02-0.087 0.03-0.12 0.03v0h-0.95c-0.087 0-0.14-0.023-0.16-0.07-0.027-0.047-0.04-0.087-0.04-0.12v0c0-0.913-0.093-1.65-0.28-2.21-0.187-0.56-0.433-1-0.74-1.32-0.313-0.32-0.67-0.53-1.07-0.63-0.393-0.107-0.81-0.16-1.25-0.16v0h-6.91c-0.167 0-0.25 0.08-0.25 0.24v0 10.67c0 0.473 0.073 0.853 0.22 1.14 0.147 0.28 0.347 0.493 0.6 0.64 0.253 0.147 0.543 0.243 0.87 0.29 0.327 0.053 0.667 0.08 1.02 0.08v0h6.67c0.94 0 1.73-0.217 2.37-0.65 0.633-0.433 1.143-0.957 1.53-1.57 0.393-0.62 0.683-1.263 0.87-1.93 0.187-0.667 0.307-1.237 0.36-1.71v0c0.027-0.213 0.13-0.38 0.31-0.5 0.18-0.12 0.383-0.18 0.61-0.18v0c0.08 0 0.18 0.03 0.3 0.09 0.113 0.067 0.17 0.14 0.17 0.22v0l-0.81 8.94c-0.033 0.08-0.077 0.157-0.13 0.23-0.06 0.073-0.13 0.11-0.21 0.11v0h-28.3c-0.093 0-0.15-0.03-0.17-0.09-0.013-0.053-0.02-0.09-0.02-0.11v0z" fill="#ffffff" fill-rule="nonzero" stroke="none" stroke-width="1" stroke-linecap="butt" stroke-linejoin="miter" stroke-miterlimit="10" stroke-dasharray="" stroke-dashoffset="0" font-family="none" font-weight="none" font-size="none" text-anchor="none" style="mix-blend-mode: normal" data-fill-palette-color="primary" opacity="1"></path></g></svg></g></svg></g></svg></g></svg></g><g transform="matrix(1,0,0,1,0,0.1764244758298048)"><svg viewBox="0 0 89.05612558901787 70.56979033192248" height="70.56979033192248" width="89.05612558901787"><g><svg xmlns="http://www.w3.org/2000/svg" xmlns:xlink="http://www.w3.org/1999/xlink" version="1.1" x="0" y="0" viewBox="17.125 66.80000305175781 477.77734375 378.5999755859375" style="enable-background:new 0 0 512 512;" xml:space="preserve" height="70.56979033192248" width="89.05612558901787" class="icon-icon-0" data-fill-palette-color="accent" id="icon-0"><g fill="#ffffff" data-fill-palette-color="accent"><path d="M140.3 257.8c-1.7 0-3.1-1.3-3.2-3-0.1-0.8-6.3-76.6-26.6-96.9-1.3-1.3-1.3-3.3 0-4.5 1.3-1.3 3.3-1.3 4.5 0 22 22 28.2 97.7 28.5 100.9 0.1 1.8-1.2 3.3-2.9 3.4C140.4 257.8 140.4 257.8 140.3 257.8z" fill="#ffffff" data-fill-palette-color="accent"></path></g><g fill="#ffffff" data-fill-palette-color="accent"><path d="M371.7 257.8c-0.1 0-0.2 0-0.3 0-1.8-0.1-3.1-1.7-2.9-3.4 0.3-3.2 6.5-78.9 28.5-100.9 1.3-1.3 3.3-1.3 4.5 0 1.3 1.3 1.3 3.3 0 4.5-20.3 20.3-26.5 96.1-26.6 96.9C374.8 256.6 373.4 257.8 371.7 257.8z" fill="#ffffff" data-fill-palette-color="accent"></path></g><path d="M256 148.2c-36.7 0-69.4-25.5-69.4-45.6 0-21.7 35.8-23.5 69.4-23.5 0 0 0 0 0 0 33.6 0 69.4 1.8 69.4 23.5C325.4 122.7 292.7 148.2 256 148.2zM256 85.5C256 85.5 256 85.5 256 85.5c-31.1 0-63 2-63 17.1 0 15.5 28.2 39.2 63 39.2 34.8 0 63-23.7 63-39.2C319 87.5 287.1 85.5 256 85.5 256 85.5 256 85.5 256 85.5z" fill="#ffffff" data-fill-palette-color="accent"></path><path d="M256 79.1C256 79.1 256 79.1 256 79.1c-33.6 0-69.4 1.8-69.4 23.5 0 20.1 32.7 45.7 69.4 45.7 36.7 0 69.4-25.5 69.4-45.7C325.4 80.9 289.6 79.1 256 79.1zM256 141.8c-34.7 0-63-23.7-63-39.2 0-15 31.8-17.1 63-17.1 0 0 0 0 0 0 0 0 0 0 0 0 31.1 0 63 2 63 17.1C319 118 290.8 141.8 256 141.8z" fill="#ffffff" data-fill-palette-color="accent"></path><path d="M494.2 240.7c-0.6-0.8-62.7-80.5-100.8-118.7-1.2-1.3-13-14.5-35.2-27.7-10-6-23.2-12.5-39.2-17.7-11.9-4.7-27.2-7.7-43.2-8.9-6.3-0.6-12.9-0.9-19.8-0.9h0c0 0 0 0 0 0-13.4 0-25.9 1.3-37.3 3.4-2.9 0.5-5.7 1.1-8.5 1.7-24 5.5-43 14.5-56.5 22.5-22.2 13.2-34 26.4-35.2 27.7C80.5 160.1 18.4 239.8 17.8 240.7c-0.9 1.1-0.9 2.7 0 3.9l63.9 85.2c0.6 0.8 1.5 1.2 2.5 1.3 1 0 1.9-0.4 2.5-1.1l44.9-51.8c2.1-2.4 4.7-1.7 5.4-1.4 0.7 0.3 3.1 1.4 3.2 4.4l-16.8 138.6c-0.1 0.9 0.2 1.8 0.8 2.5 0.6 0.7 1.5 1.1 2.4 1.1 1.8 0 3.6 0 5.4-0.1v0.5c0 11.9 9.7 21.6 21.6 21.6h205c11.9 0 21.6-9.7 21.6-21.6v-0.5c1.8 0 3.6 0 5.4 0.1 0 0 0 0 0 0 0.9 0 1.8-0.4 2.4-1.1 0.6-0.7 0.9-1.6 0.8-2.5l-16.8-138.6c0.1-3 2.5-4.1 3.2-4.4 0.7-0.3 3.4-1 5.4 1.4l44.9 51.8c0.6 0.7 1.6 1.1 2.5 1.1 1 0 1.9-0.5 2.5-1.3l63.9-85.2C495.1 243.4 495.1 241.8 494.2 240.7zM256.9 166c46 0 86.9-35.2 86.9-62.9 0-4-1.1-7.7-3.2-11 5.2 2.5 10 5.1 14.1 7.6 22.1 13.2 33.8 26.5 33.9 26.6 0.1 0.1 0.1 0.1 0.2 0.2 34.5 34.5 89.1 103.8 98.8 116.2l-60 80.1-42.3-48.8c-3.1-3.6-8-4.9-12.5-3.2-4.5 1.7-7.4 5.8-7.4 10.6 0 0.1 0 0.3 0 0.4l16.4 135.2c-9.3-0.1-242.4-0.1-251.7 0l16.4-135.2c0-0.1 0-0.3 0-0.4 0-4.8-2.9-8.9-7.4-10.6-1.3-0.5-2.7-0.7-4-0.7-3.2 0-6.3 1.4-8.5 3.9l-42.3 48.8-60-80.1c9.7-12.4 64.3-81.7 98.8-116.2 0.1-0.1 0.1-0.1 0.2-0.2 0.1-0.1 11.8-13.5 33.9-26.6 4.8-2.9 10.4-5.9 16.7-8.8-2.6 3.6-4.1 7.7-4.1 12.3C169.9 130.8 210.9 166 256.9 166M256.9 160c-44.7 0-80.9-34.4-80.9-56.9 0-9.4 9.1-16.7 23-21.7 16.2-4.9 35.3-8.3 57-8.3 0 0 0 0 0 0 25.1 0 46.7 4.6 64.5 10.7 9 4.1 17.4 10.4 17.4 19.3C337.8 125.6 301.6 160 256.9 160" fill="#ffffff" data-fill-palette-color="accent"></path></svg></g></svg></g></svg></g><defs></defs></svg><rect width="395.52" height="53.81902616582541" fill="none" stroke="none" visibility="hidden"></rect></g></svg></g></svg>